<mxfile host="Electron" modified="2024-11-14T10:37:51.117Z" agent="Mozilla/5.0 (Windows NT 10.0; Win64; x64) AppleWebKit/537.36 (KHTML, like Gecko) draw.io/22.0.2 Chrome/114.0.5735.289 Electron/25.8.4 Safari/537.36" etag="MmXIw7TBiSAeqyJLoJqE" version="22.0.2" type="device">
  <diagram name="Pagina-1" id="Af2GxlgzsYfftgxqkVeS">
    <mxGraphModel dx="1336" dy="1760" grid="1" gridSize="10" guides="1" tooltips="1" connect="1" arrows="1" fold="1" page="1" pageScale="1" pageWidth="827" pageHeight="1169" math="0" shadow="0">
      <root>
        <mxCell id="0" />
        <mxCell id="1" parent="0" />
        <mxCell id="Ahilg75CwXbo_zg4Yy4V-36" value="" style="rounded=0;whiteSpace=wrap;html=1;" parent="1" vertex="1">
          <mxGeometry x="60" y="-60" width="770" height="630" as="geometry" />
        </mxCell>
        <mxCell id="FZNf62Z9b0IQ9IvIFHaN-10" style="edgeStyle=orthogonalEdgeStyle;rounded=0;orthogonalLoop=1;jettySize=auto;html=1;exitX=1;exitY=0.5;exitDx=0;exitDy=0;entryX=1;entryY=0.5;entryDx=0;entryDy=0;" edge="1" parent="1" source="Ahilg75CwXbo_zg4Yy4V-23" target="Ahilg75CwXbo_zg4Yy4V-22">
          <mxGeometry relative="1" as="geometry" />
        </mxCell>
        <mxCell id="Ahilg75CwXbo_zg4Yy4V-23" value="" style="rounded=0;whiteSpace=wrap;html=1;" parent="1" vertex="1">
          <mxGeometry x="262" y="140" width="300" height="110" as="geometry" />
        </mxCell>
        <mxCell id="Ahilg75CwXbo_zg4Yy4V-22" value="&lt;p style=&quot;line-height: 120%;&quot;&gt;&lt;br&gt;&lt;/p&gt;" style="rounded=0;whiteSpace=wrap;html=1;align=left;" parent="1" vertex="1">
          <mxGeometry x="259" y="425" width="300" height="95" as="geometry" />
        </mxCell>
        <mxCell id="Ahilg75CwXbo_zg4Yy4V-21" value="" style="rounded=0;whiteSpace=wrap;html=1;" parent="1" vertex="1">
          <mxGeometry x="260" y="280" width="300" height="120" as="geometry" />
        </mxCell>
        <mxCell id="Ahilg75CwXbo_zg4Yy4V-41" style="edgeStyle=orthogonalEdgeStyle;rounded=0;orthogonalLoop=1;jettySize=auto;html=1;exitX=1;exitY=0.5;exitDx=0;exitDy=0;startArrow=classic;startFill=1;" parent="1" source="Ahilg75CwXbo_zg4Yy4V-1" target="Ahilg75CwXbo_zg4Yy4V-40" edge="1">
          <mxGeometry relative="1" as="geometry" />
        </mxCell>
        <mxCell id="Ahilg75CwXbo_zg4Yy4V-1" value="Web Application&lt;br&gt;(Angular)" style="rounded=0;whiteSpace=wrap;html=1;" parent="1" vertex="1">
          <mxGeometry x="-90" y="310" width="120" height="60" as="geometry" />
        </mxCell>
        <mxCell id="Ahilg75CwXbo_zg4Yy4V-13" style="edgeStyle=orthogonalEdgeStyle;rounded=0;orthogonalLoop=1;jettySize=auto;html=1;exitX=1;exitY=0.5;exitDx=0;exitDy=0;" parent="1" source="Ahilg75CwXbo_zg4Yy4V-7" target="Ahilg75CwXbo_zg4Yy4V-12" edge="1">
          <mxGeometry relative="1" as="geometry" />
        </mxCell>
        <mxCell id="Ahilg75CwXbo_zg4Yy4V-7" value="PostAPI" style="rounded=0;whiteSpace=wrap;html=1;" parent="1" vertex="1">
          <mxGeometry x="280" y="310" width="120" height="60" as="geometry" />
        </mxCell>
        <mxCell id="Ahilg75CwXbo_zg4Yy4V-14" style="edgeStyle=orthogonalEdgeStyle;rounded=0;orthogonalLoop=1;jettySize=auto;html=1;exitX=1;exitY=0.5;exitDx=0;exitDy=0;" parent="1" source="Ahilg75CwXbo_zg4Yy4V-8" target="Ahilg75CwXbo_zg4Yy4V-11" edge="1">
          <mxGeometry relative="1" as="geometry" />
        </mxCell>
        <mxCell id="Ahilg75CwXbo_zg4Yy4V-8" value="ReviewAPI" style="rounded=0;whiteSpace=wrap;html=1;" parent="1" vertex="1">
          <mxGeometry x="282" y="160" width="120" height="60" as="geometry" />
        </mxCell>
        <mxCell id="Ahilg75CwXbo_zg4Yy4V-9" value="CommentAPI" style="rounded=0;whiteSpace=wrap;html=1;" parent="1" vertex="1">
          <mxGeometry x="280" y="450" width="120" height="60" as="geometry" />
        </mxCell>
        <mxCell id="Ahilg75CwXbo_zg4Yy4V-10" value="MySQL&lt;br&gt;Comments" style="shape=cylinder3;whiteSpace=wrap;html=1;boundedLbl=1;backgroundOutline=1;size=15;" parent="1" vertex="1">
          <mxGeometry x="470" y="440" width="60" height="80" as="geometry" />
        </mxCell>
        <mxCell id="Ahilg75CwXbo_zg4Yy4V-11" value="MySQL&lt;br&gt;Reviews" style="shape=cylinder3;whiteSpace=wrap;html=1;boundedLbl=1;backgroundOutline=1;size=15;" parent="1" vertex="1">
          <mxGeometry x="472" y="150" width="60" height="80" as="geometry" />
        </mxCell>
        <mxCell id="Ahilg75CwXbo_zg4Yy4V-12" value="MySQL&lt;br&gt;Posts" style="shape=cylinder3;whiteSpace=wrap;html=1;boundedLbl=1;backgroundOutline=1;size=15;" parent="1" vertex="1">
          <mxGeometry x="470" y="300" width="60" height="80" as="geometry" />
        </mxCell>
        <mxCell id="Ahilg75CwXbo_zg4Yy4V-15" style="edgeStyle=orthogonalEdgeStyle;rounded=0;orthogonalLoop=1;jettySize=auto;html=1;exitX=1;exitY=0.5;exitDx=0;exitDy=0;entryX=0;entryY=0.5;entryDx=0;entryDy=0;entryPerimeter=0;" parent="1" source="Ahilg75CwXbo_zg4Yy4V-9" target="Ahilg75CwXbo_zg4Yy4V-10" edge="1">
          <mxGeometry relative="1" as="geometry" />
        </mxCell>
        <mxCell id="Ahilg75CwXbo_zg4Yy4V-25" value="ReviewService" style="text;html=1;strokeColor=none;fillColor=none;align=center;verticalAlign=middle;whiteSpace=wrap;rounded=0;" parent="1" vertex="1">
          <mxGeometry x="265" y="147" width="80" height="10" as="geometry" />
        </mxCell>
        <mxCell id="Ahilg75CwXbo_zg4Yy4V-28" value="PostService" style="text;html=1;strokeColor=none;fillColor=none;align=center;verticalAlign=middle;whiteSpace=wrap;rounded=0;" parent="1" vertex="1">
          <mxGeometry x="262" y="285" width="80" height="10" as="geometry" />
        </mxCell>
        <mxCell id="Ahilg75CwXbo_zg4Yy4V-29" value="CommentService" style="text;html=1;strokeColor=none;fillColor=none;align=center;verticalAlign=middle;whiteSpace=wrap;rounded=0;" parent="1" vertex="1">
          <mxGeometry x="270" y="430" width="80" height="10" as="geometry" />
        </mxCell>
        <mxCell id="Ahilg75CwXbo_zg4Yy4V-32" style="edgeStyle=orthogonalEdgeStyle;rounded=0;orthogonalLoop=1;jettySize=auto;html=1;exitX=1;exitY=0.5;exitDx=0;exitDy=0;entryX=1;entryY=0.5;entryDx=0;entryDy=0;startArrow=classic;startFill=1;" parent="1" source="Ahilg75CwXbo_zg4Yy4V-23" target="Ahilg75CwXbo_zg4Yy4V-21" edge="1">
          <mxGeometry relative="1" as="geometry" />
        </mxCell>
        <mxCell id="FZNf62Z9b0IQ9IvIFHaN-11" value="Open-Feign &lt;br&gt;SYNC&lt;br&gt;Communications" style="edgeLabel;html=1;align=center;verticalAlign=middle;resizable=0;points=[];" vertex="1" connectable="0" parent="Ahilg75CwXbo_zg4Yy4V-32">
          <mxGeometry x="0.6119" y="2" relative="1" as="geometry">
            <mxPoint x="-4" y="-41" as="offset" />
          </mxGeometry>
        </mxCell>
        <mxCell id="Ahilg75CwXbo_zg4Yy4V-34" value="DiscoveryService&lt;br&gt;(Eureka)" style="rounded=0;whiteSpace=wrap;html=1;" parent="1" vertex="1">
          <mxGeometry x="190" y="630" width="120" height="60" as="geometry" />
        </mxCell>
        <mxCell id="Ahilg75CwXbo_zg4Yy4V-35" value="ConfigService" style="rounded=0;whiteSpace=wrap;html=1;" parent="1" vertex="1">
          <mxGeometry x="350" y="630" width="120" height="60" as="geometry" />
        </mxCell>
        <mxCell id="Ahilg75CwXbo_zg4Yy4V-37" value="Backend system" style="text;html=1;strokeColor=none;fillColor=none;align=center;verticalAlign=middle;whiteSpace=wrap;rounded=0;" parent="1" vertex="1">
          <mxGeometry x="70" y="-50" width="60" height="30" as="geometry" />
        </mxCell>
        <mxCell id="Ahilg75CwXbo_zg4Yy4V-42" style="edgeStyle=orthogonalEdgeStyle;rounded=0;orthogonalLoop=1;jettySize=auto;html=1;exitX=1;exitY=0.5;exitDx=0;exitDy=0;" parent="1" source="Ahilg75CwXbo_zg4Yy4V-40" edge="1">
          <mxGeometry relative="1" as="geometry">
            <mxPoint x="260" y="340" as="targetPoint" />
          </mxGeometry>
        </mxCell>
        <mxCell id="Ahilg75CwXbo_zg4Yy4V-43" style="edgeStyle=orthogonalEdgeStyle;rounded=0;orthogonalLoop=1;jettySize=auto;html=1;exitX=1;exitY=0.5;exitDx=0;exitDy=0;entryX=0;entryY=0.5;entryDx=0;entryDy=0;" parent="1" source="Ahilg75CwXbo_zg4Yy4V-40" target="Ahilg75CwXbo_zg4Yy4V-21" edge="1">
          <mxGeometry relative="1" as="geometry" />
        </mxCell>
        <mxCell id="Ahilg75CwXbo_zg4Yy4V-47" style="edgeStyle=orthogonalEdgeStyle;rounded=0;orthogonalLoop=1;jettySize=auto;html=1;exitX=1;exitY=0.5;exitDx=0;exitDy=0;entryX=0.5;entryY=0;entryDx=0;entryDy=0;" parent="1" target="Ahilg75CwXbo_zg4Yy4V-35" edge="1">
          <mxGeometry relative="1" as="geometry">
            <mxPoint x="234" y="340" as="sourcePoint" />
            <mxPoint x="434" y="630" as="targetPoint" />
            <Array as="points">
              <mxPoint x="234" y="590" />
              <mxPoint x="410" y="590" />
            </Array>
          </mxGeometry>
        </mxCell>
        <mxCell id="FZNf62Z9b0IQ9IvIFHaN-2" style="edgeStyle=orthogonalEdgeStyle;rounded=0;orthogonalLoop=1;jettySize=auto;html=1;exitX=1;exitY=0.5;exitDx=0;exitDy=0;entryX=0;entryY=0.5;entryDx=0;entryDy=0;" edge="1" parent="1" source="Ahilg75CwXbo_zg4Yy4V-40" target="Ahilg75CwXbo_zg4Yy4V-23">
          <mxGeometry relative="1" as="geometry" />
        </mxCell>
        <mxCell id="Ahilg75CwXbo_zg4Yy4V-40" value="APIGatewayService" style="rounded=0;whiteSpace=wrap;html=1;" parent="1" vertex="1">
          <mxGeometry x="90" y="310" width="120" height="60" as="geometry" />
        </mxCell>
        <mxCell id="Ahilg75CwXbo_zg4Yy4V-44" style="edgeStyle=orthogonalEdgeStyle;rounded=0;orthogonalLoop=1;jettySize=auto;html=1;exitX=1;exitY=0.5;exitDx=0;exitDy=0;entryX=-0.001;entryY=0.574;entryDx=0;entryDy=0;entryPerimeter=0;startArrow=classic;startFill=1;" parent="1" source="Ahilg75CwXbo_zg4Yy4V-40" target="Ahilg75CwXbo_zg4Yy4V-22" edge="1">
          <mxGeometry relative="1" as="geometry" />
        </mxCell>
        <mxCell id="Ahilg75CwXbo_zg4Yy4V-45" style="edgeStyle=orthogonalEdgeStyle;rounded=0;orthogonalLoop=1;jettySize=auto;html=1;exitX=1;exitY=0.5;exitDx=0;exitDy=0;entryX=0.368;entryY=0.017;entryDx=0;entryDy=0;entryPerimeter=0;" parent="1" source="Ahilg75CwXbo_zg4Yy4V-40" target="Ahilg75CwXbo_zg4Yy4V-34" edge="1">
          <mxGeometry relative="1" as="geometry" />
        </mxCell>
        <mxCell id="FZNf62Z9b0IQ9IvIFHaN-7" style="edgeStyle=orthogonalEdgeStyle;rounded=0;orthogonalLoop=1;jettySize=auto;html=1;exitX=0.5;exitY=0;exitDx=0;exitDy=0;exitPerimeter=0;entryX=1;entryY=0.5;entryDx=0;entryDy=0;" edge="1" parent="1" source="FZNf62Z9b0IQ9IvIFHaN-1" target="FZNf62Z9b0IQ9IvIFHaN-4">
          <mxGeometry relative="1" as="geometry" />
        </mxCell>
        <mxCell id="FZNf62Z9b0IQ9IvIFHaN-14" style="edgeStyle=orthogonalEdgeStyle;rounded=0;orthogonalLoop=1;jettySize=auto;html=1;exitX=0.5;exitY=1;exitDx=0;exitDy=0;exitPerimeter=0;entryX=1;entryY=0.75;entryDx=0;entryDy=0;" edge="1" parent="1" source="FZNf62Z9b0IQ9IvIFHaN-1" target="Ahilg75CwXbo_zg4Yy4V-21">
          <mxGeometry relative="1" as="geometry" />
        </mxCell>
        <mxCell id="FZNf62Z9b0IQ9IvIFHaN-16" value="Post/review made" style="edgeLabel;html=1;align=center;verticalAlign=middle;resizable=0;points=[];" vertex="1" connectable="0" parent="FZNf62Z9b0IQ9IvIFHaN-14">
          <mxGeometry x="0.0571" y="2" relative="1" as="geometry">
            <mxPoint as="offset" />
          </mxGeometry>
        </mxCell>
        <mxCell id="FZNf62Z9b0IQ9IvIFHaN-1" value="RabbitMQ&lt;br&gt;queue" style="shape=cylinder3;whiteSpace=wrap;html=1;boundedLbl=1;backgroundOutline=1;size=15;" vertex="1" parent="1">
          <mxGeometry x="700" y="250" width="60" height="80" as="geometry" />
        </mxCell>
        <mxCell id="FZNf62Z9b0IQ9IvIFHaN-3" style="edgeStyle=orthogonalEdgeStyle;rounded=0;orthogonalLoop=1;jettySize=auto;html=1;exitX=1;exitY=0.25;exitDx=0;exitDy=0;entryX=0;entryY=0.5;entryDx=0;entryDy=0;entryPerimeter=0;" edge="1" parent="1" source="Ahilg75CwXbo_zg4Yy4V-23" target="FZNf62Z9b0IQ9IvIFHaN-1">
          <mxGeometry relative="1" as="geometry" />
        </mxCell>
        <mxCell id="FZNf62Z9b0IQ9IvIFHaN-12" value="Review made" style="edgeLabel;html=1;align=center;verticalAlign=middle;resizable=0;points=[];" vertex="1" connectable="0" parent="FZNf62Z9b0IQ9IvIFHaN-3">
          <mxGeometry x="-0.343" y="-1" relative="1" as="geometry">
            <mxPoint as="offset" />
          </mxGeometry>
        </mxCell>
        <mxCell id="FZNf62Z9b0IQ9IvIFHaN-4" value="" style="rounded=0;whiteSpace=wrap;html=1;" vertex="1" parent="1">
          <mxGeometry x="390" y="-10" width="175" height="110" as="geometry" />
        </mxCell>
        <mxCell id="FZNf62Z9b0IQ9IvIFHaN-5" value="NotificationService" style="text;html=1;strokeColor=none;fillColor=none;align=center;verticalAlign=middle;whiteSpace=wrap;rounded=0;" vertex="1" parent="1">
          <mxGeometry x="402" y="-7" width="80" height="10" as="geometry" />
        </mxCell>
        <mxCell id="FZNf62Z9b0IQ9IvIFHaN-8" value="NotificationService" style="rounded=0;whiteSpace=wrap;html=1;" vertex="1" parent="1">
          <mxGeometry x="417.5" y="15" width="120" height="60" as="geometry" />
        </mxCell>
        <mxCell id="FZNf62Z9b0IQ9IvIFHaN-9" style="edgeStyle=orthogonalEdgeStyle;rounded=0;orthogonalLoop=1;jettySize=auto;html=1;exitX=0.5;exitY=1;exitDx=0;exitDy=0;" edge="1" parent="1" source="FZNf62Z9b0IQ9IvIFHaN-4">
          <mxGeometry relative="1" as="geometry">
            <mxPoint x="478" y="140" as="targetPoint" />
          </mxGeometry>
        </mxCell>
        <mxCell id="FZNf62Z9b0IQ9IvIFHaN-13" value="Review notification" style="edgeLabel;html=1;align=center;verticalAlign=middle;resizable=0;points=[];" vertex="1" connectable="0" parent="FZNf62Z9b0IQ9IvIFHaN-9">
          <mxGeometry x="0.1272" y="1" relative="1" as="geometry">
            <mxPoint as="offset" />
          </mxGeometry>
        </mxCell>
        <mxCell id="FZNf62Z9b0IQ9IvIFHaN-15" style="edgeStyle=orthogonalEdgeStyle;rounded=0;orthogonalLoop=1;jettySize=auto;html=1;exitX=1;exitY=0.75;exitDx=0;exitDy=0;entryX=0.805;entryY=1.009;entryDx=0;entryDy=0;entryPerimeter=0;" edge="1" parent="1" source="Ahilg75CwXbo_zg4Yy4V-22" target="FZNf62Z9b0IQ9IvIFHaN-1">
          <mxGeometry relative="1" as="geometry" />
        </mxCell>
        <mxCell id="FZNf62Z9b0IQ9IvIFHaN-18" value="Comment made" style="edgeLabel;html=1;align=center;verticalAlign=middle;resizable=0;points=[];" vertex="1" connectable="0" parent="FZNf62Z9b0IQ9IvIFHaN-15">
          <mxGeometry x="-0.2431" y="-2" relative="1" as="geometry">
            <mxPoint x="57" y="-58" as="offset" />
          </mxGeometry>
        </mxCell>
      </root>
    </mxGraphModel>
  </diagram>
</mxfile>
